<svg width="11" height="10" viewBox="0 0 11 10" fill="none" xmlns="http://www.w3.org/2000/svg">
<path d="M6.6335 3.66242L4.846 5.45409L4.1585 4.76659C4.12114 4.72297 4.07518 4.68754 4.02349 4.66253C3.97179 4.63752 3.91549 4.62347 3.8581 4.62125C3.80072 4.61904 3.7435 4.62871 3.69003 4.64965C3.63656 4.6706 3.588 4.70237 3.54739 4.74298C3.50679 4.78359 3.47501 4.83215 3.45407 4.88562C3.43312 4.93909 3.42345 4.99631 3.42567 5.05369C3.42788 5.11107 3.44194 5.16738 3.46695 5.21907C3.49196 5.27077 3.52738 5.31673 3.571 5.35409L4.55016 6.33742C4.5891 6.37604 4.63527 6.40659 4.68604 6.42732C4.7368 6.44806 4.79116 6.45857 4.846 6.45825C4.95531 6.45779 5.06006 6.4144 5.13766 6.33742L7.221 4.25409C7.26005 4.21535 7.29105 4.16927 7.3122 4.11849C7.33336 4.06772 7.34425 4.01326 7.34425 3.95825C7.34425 3.90325 7.33336 3.84879 7.3122 3.79801C7.29105 3.74724 7.26005 3.70115 7.221 3.66242C7.14293 3.58481 7.03733 3.54126 6.92725 3.54126C6.81717 3.54126 6.71157 3.58481 6.6335 3.66242ZM5.50016 0.833252C4.67608 0.833252 3.87049 1.07762 3.18529 1.53546C2.50008 1.9933 1.96603 2.64405 1.65067 3.4054C1.3353 4.16676 1.25279 5.00454 1.41356 5.8128C1.57433 6.62105 1.97117 7.36348 2.55389 7.9462C3.13661 8.52892 3.87903 8.92575 4.68729 9.08652C5.49554 9.2473 6.33332 9.16478 7.09468 8.84942C7.85604 8.53405 8.50678 8 8.96462 7.3148C9.42246 6.62959 9.66683 5.82401 9.66683 4.99992C9.66683 4.45274 9.55906 3.91093 9.34966 3.4054C9.14027 2.89988 8.83335 2.44055 8.44644 2.05364C8.05953 1.66673 7.6002 1.35982 7.09468 1.15042C6.58916 0.941026 6.04734 0.833252 5.50016 0.833252ZM5.50016 8.33325C4.84089 8.33325 4.19643 8.13776 3.64826 7.77148C3.1001 7.40521 2.67286 6.88462 2.42057 6.27553C2.16827 5.66644 2.10226 4.99622 2.23088 4.34962C2.3595 3.70301 2.67697 3.10907 3.14314 2.6429C3.60932 2.17672 4.20326 1.85925 4.84986 1.73063C5.49647 1.60202 6.16669 1.66803 6.77578 1.92032C7.38486 2.17261 7.90546 2.59985 8.27173 3.14802C8.638 3.69618 8.8335 4.34065 8.8335 4.99992C8.8335 5.88397 8.48231 6.73182 7.85719 7.35694C7.23207 7.98206 6.38422 8.33325 5.50016 8.33325Z" fill="#62AE41"/>
</svg>
