<svg width="24" height="24" viewBox="0 0 24 24" fill="none" xmlns="http://www.w3.org/2000/svg">
<g clip-path="url(#clip0_228_3976)">
<path d="M6 0H18C18.2652 0 18.5196 0.105357 18.7071 0.292893C18.8946 0.48043 19 0.734784 19 1V23C18.999 23.1974 18.9396 23.3901 18.8293 23.5539C18.7189 23.7176 18.5626 23.845 18.38 23.92C18.2613 23.976 18.1312 24.0034 18 24C17.8684 24.0008 17.7379 23.9755 17.6161 23.9258C17.4943 23.876 17.3834 23.8027 17.29 23.71L12 19.27L6.65 23.76C6.50473 23.8843 6.32688 23.9643 6.13754 23.9906C5.94819 24.0169 5.75527 23.9883 5.58164 23.9083C5.40801 23.8284 5.26094 23.7003 5.15785 23.5393C5.05477 23.3783 4.99999 23.1912 5 23V1C5 0.734784 5.10536 0.48043 5.29289 0.292893C5.48043 0.105357 5.73478 0 6 0Z" fill="white"/>
</g>
<defs>
<clipPath id="clip0_228_3976">
<rect width="24" height="24" fill="white"/>
</clipPath>
</defs>
</svg>
