<svg width="10" height="11" viewBox="0 0 10 11" fill="none" xmlns="http://www.w3.org/2000/svg">
<path d="M7.75626 4.06145L8.15439 3.68291C8.23677 3.60371 8.28305 3.49629 8.28305 3.38428C8.28305 3.27228 8.23677 3.16486 8.15439 3.08566C8.072 3.00646 7.96027 2.96196 7.84376 2.96196C7.72725 2.96196 7.61552 3.00646 7.53314 3.08566L7.13939 3.4684C6.52625 3.01241 5.77301 2.76501 4.99782 2.76501C4.22264 2.76501 3.46939 3.01241 2.85626 3.4684L2.45814 3.08145C2.37517 3.00225 2.26288 2.95798 2.14596 2.95837C2.02905 2.95877 1.91708 3.0038 1.8347 3.08356C1.75232 3.16331 1.70626 3.27127 1.70667 3.38367C1.70708 3.49607 1.75392 3.60371 1.83689 3.68291L2.23939 4.06565C1.75946 4.65346 1.49904 5.37933 1.50001 6.12659C1.49858 6.66303 1.63059 7.19203 1.88502 7.66946C2.13945 8.14689 2.50894 8.55892 2.96266 8.87118C3.41638 9.18345 3.94118 9.38689 4.4933 9.46455C5.04542 9.54221 5.60886 9.49184 6.13661 9.31763C6.66437 9.14342 7.14115 8.85043 7.5272 8.46309C7.91324 8.07574 8.19735 7.60528 8.35585 7.09093C8.51434 6.57658 8.54261 6.03326 8.43831 5.50627C8.33401 4.97928 8.10016 4.4839 7.75626 4.06145ZM5.00001 8.65019C4.48084 8.65019 3.97332 8.50218 3.54164 8.22488C3.10996 7.94759 2.77351 7.55346 2.57483 7.09233C2.37615 6.6312 2.32416 6.12379 2.42545 5.63426C2.52674 5.14473 2.77674 4.69507 3.14386 4.34214C3.51097 3.98921 3.9787 3.74886 4.4879 3.65149C4.9971 3.55411 5.5249 3.60409 6.00456 3.79509C6.48421 3.9861 6.89418 4.30955 7.18262 4.72456C7.47106 5.13956 7.62501 5.62747 7.62501 6.12659C7.62501 6.79589 7.34845 7.43778 6.85617 7.91104C6.36388 8.38431 5.69621 8.65019 5.00001 8.65019ZM4.12501 2.3412H5.87501C5.99104 2.3412 6.10232 2.29689 6.18437 2.21801C6.26642 2.13913 6.31251 2.03215 6.31251 1.9206C6.31251 1.80905 6.26642 1.70207 6.18437 1.62319C6.10232 1.54431 5.99104 1.5 5.87501 1.5H4.12501C4.00898 1.5 3.8977 1.54431 3.81565 1.62319C3.73361 1.70207 3.68751 1.80905 3.68751 1.9206C3.68751 2.03215 3.73361 2.13913 3.81565 2.21801C3.8977 2.29689 4.00898 2.3412 4.12501 2.3412ZM5.43751 4.86479C5.43751 4.75324 5.39142 4.64626 5.30937 4.56738C5.22732 4.48851 5.11604 4.44419 5.00001 4.44419C4.88398 4.44419 4.7727 4.48851 4.69065 4.56738C4.60861 4.64626 4.56251 4.75324 4.56251 4.86479V5.65973C4.46345 5.74491 4.39362 5.857 4.36228 5.98117C4.33093 6.10533 4.33954 6.23573 4.38696 6.35509C4.43439 6.47445 4.51839 6.57716 4.62786 6.64961C4.73733 6.72207 4.8671 6.76087 5.00001 6.76087C5.13292 6.76087 5.26269 6.72207 5.37216 6.64961C5.48163 6.57716 5.56564 6.47445 5.61306 6.35509C5.66049 6.23573 5.66909 6.10533 5.63775 5.98117C5.6064 5.857 5.53657 5.74491 5.43751 5.65973V4.86479Z" fill="#5D5FEF"/>
</svg>
