<svg xmlns="http://www.w3.org/2000/svg">
  <symbol viewBox="0 0 25 24" id="chevron">
    <path d="M15.7799 11.6572L16.4498 12.3281L10.0856 18.6924C9.30482 17.9114 9.3048 16.6452 10.0856 15.8643L13.6227 12.3272L10.1227 8.82813C9.34183 8.04708 9.34173 6.78099 10.1227 6.00001L15.7799 11.6572Z"></path>
  </symbol>
  <symbol viewBox="0 0 25 24" id="content_copy">
    <path d="M17 1H5C3.9 1 3 1.9 3 3V17H5V3H17V1ZM20 5H9C7.9 5 7 5.9 7 7V21C7 22.1 7.9 23 9 23H20C21.1 23 22 22.1 22 21V7C22 5.9 21.1 5 20 5ZM20 21H9V7H20V21Z"></path>
  </symbol>
  <symbol viewBox="0 0 24 22" id="diamond">
    <path d="M12.7753 0.78316C12.8879 0.760729 13.0026 0.760716 13.1132 0.78316H18.2636C18.6857 0.79476 19.0992 0.905417 19.4706 1.1064C19.8394 1.30596 20.1564 1.58888 20.3964 1.93257L23.5165 6.25289C23.8585 6.73617 24.0294 7.32066 24.0019 7.91207C23.9743 8.50322 23.7503 9.06823 23.3652 9.51754L23.3613 9.52144L14.0156 20.289C13.7776 20.5893 13.4751 20.8323 13.1308 21.0009C12.7787 21.1733 12.3919 21.2627 11.9999 21.2627C11.6079 21.2626 11.2211 21.1734 10.8691 21.0009C10.5248 20.8323 10.2223 20.5893 9.98431 20.289L0.634706 9.51754C0.249587 9.06824 0.0255685 8.50319 -0.0020129 7.91207C-0.0295203 7.32066 0.141343 6.73617 0.483339 6.25289L0.488221 6.24703L3.60346 1.93257C3.84343 1.58888 4.16052 1.30597 4.52924 1.1064C4.90059 0.905433 5.31418 0.794787 5.73627 0.78316H10.9394C11.0503 0.760802 11.1654 0.760387 11.2783 0.78316H12.7753ZM12.0029 18.1259L15.8232 8.95992H8.20795L12.0029 18.1259ZM9.93744 17.6191L6.35248 8.95992H2.42084L9.93744 17.6191ZM17.6796 8.95992L14.0781 17.6005L21.579 8.95992H17.6796ZM17.5761 7.24605H22.1191L18.9921 2.91695C18.9049 2.79114 18.7898 2.68715 18.6552 2.61421C18.5233 2.54283 18.3763 2.50268 18.2265 2.49703H14.5244L17.5761 7.24605ZM5.77338 2.49703C5.62372 2.5027 5.47745 2.54293 5.34564 2.61421C5.21083 2.68717 5.0951 2.79098 5.00775 2.91695L4.99799 2.93062L1.8808 7.24605H6.45892L9.52435 2.49703H5.77338ZM8.49896 7.24605H15.539L12.4863 2.49703H11.5644L8.49896 7.24605Z"></path>
  </symbol>
  <symbol viewBox="0 0 24 24" id="icon-arrow-alt-right">
    <path d="M15.6729 5.45044C14.8919 6.23143 14.892 7.49751 15.6729 8.27856L18.3955 11.0002H1V13.0002H17.9502L15.6357 15.3147C14.855 16.0957 14.855 17.3618 15.6357 18.1428L22 11.7786L21.3301 11.1077L15.6729 5.45044Z"></path>
  </symbol>
  <symbol viewBox="0 0 24 24" id="icon-basket">
    <path fill-rule="evenodd" clip-rule="evenodd" d="M14 6V8H12H10V6C10 4.89543 10.8954 4 12 4C13.1046 4 14 4.89543 14 6ZM8 8V6C8 3.79086 9.79086 2 12 2C14.2091 2 16 3.79086 16 6V8H18.9546H21L20.5714 10L18.6775 18.8381C18.2823 20.6824 16.6525 22 14.7663 22H9.23366C7.34751 22 5.71766 20.6824 5.32245 18.8381L3.42857 10L3 8H5.0454H8ZM16 10H14H12H10H8H5.47397L7.27806 18.4191C7.47566 19.3412 8.29059 20 9.23366 20H14.7663C15.7094 20 16.5243 19.3412 16.7219 18.4191L18.526 10H16Z"></path>
  </symbol>
  <symbol viewBox="0 0 16 16" id="icon-call">
    <path d="M12.9601 8.66674C12.8134 8.66674 12.6601 8.62008 12.5134 8.58674C12.2164 8.52129 11.9245 8.4344 11.6401 8.32674C11.3308 8.21423 10.9908 8.22007 10.6856 8.34315C10.3804 8.46622 10.1315 8.69783 9.98673 8.99341L9.84007 9.29341C9.19074 8.93219 8.59406 8.48356 8.06673 7.96007C7.54325 7.43275 7.09462 6.83607 6.7334 6.18674L7.0134 6.00007C7.30898 5.85535 7.54059 5.60643 7.66366 5.3012C7.78674 4.99598 7.79258 4.65602 7.68007 4.34674C7.57422 4.06169 7.48736 3.76994 7.42007 3.47341C7.38673 3.32674 7.36007 3.17341 7.34007 3.02008C7.25911 2.55049 7.01315 2.12524 6.64648 1.8209C6.27981 1.51657 5.81653 1.35315 5.34007 1.36007H3.34007C3.05275 1.35738 2.76823 1.41662 2.50587 1.53376C2.24351 1.65091 2.00947 1.82321 1.81969 2.03893C1.6299 2.25465 1.48882 2.50874 1.40606 2.78388C1.32329 3.05903 1.30079 3.34878 1.34007 3.63341C1.69523 6.42633 2.97075 9.02133 4.96517 11.0085C6.95958 12.9957 9.55921 14.2617 12.3534 14.6067H12.6067C13.0983 14.6075 13.573 14.4271 13.9401 14.1001C14.151 13.9114 14.3195 13.6802 14.4344 13.4216C14.5493 13.163 14.608 12.883 14.6067 12.6001V10.6001C14.5986 10.137 14.4299 9.69111 14.1296 9.33852C13.8293 8.98593 13.4159 8.74849 12.9601 8.66674ZM13.2934 12.6667C13.2933 12.7614 13.273 12.8549 13.2339 12.9412C13.1948 13.0274 13.1378 13.1043 13.0667 13.1667C12.9922 13.2311 12.9051 13.2791 12.811 13.3078C12.7169 13.3365 12.6178 13.3452 12.5201 13.3334C10.0233 13.0133 7.70423 11.8711 5.92854 10.0869C4.15286 8.30281 3.02167 5.9783 2.7134 3.48007C2.70279 3.38242 2.71209 3.28363 2.74074 3.18967C2.76938 3.09571 2.81678 3.00853 2.88007 2.93341C2.94254 2.8623 3.01944 2.8053 3.10565 2.76622C3.19186 2.72714 3.28541 2.70686 3.38007 2.70674H5.38007C5.5351 2.70329 5.68648 2.75399 5.80816 2.85012C5.92984 2.94625 6.01421 3.08179 6.04673 3.23341C6.0734 3.41563 6.10673 3.59563 6.14673 3.77341C6.22375 4.12484 6.32624 4.47019 6.4534 4.80674L5.52007 5.24007C5.44027 5.27669 5.36848 5.32871 5.30884 5.39314C5.2492 5.45757 5.20287 5.53315 5.17251 5.61554C5.14216 5.69793 5.12838 5.7855 5.13197 5.87322C5.13555 5.96095 5.15643 6.0471 5.1934 6.12674C6.15287 8.18191 7.8049 9.83394 9.86007 10.7934C10.0224 10.8601 10.2044 10.8601 10.3667 10.7934C10.4499 10.7637 10.5263 10.7177 10.5915 10.6582C10.6567 10.5987 10.7095 10.5268 10.7467 10.4467L11.1601 9.51341C11.5047 9.63666 11.8565 9.73907 12.2134 9.82008C12.3912 9.86007 12.5712 9.89341 12.7534 9.92008C12.905 9.9526 13.0406 10.037 13.1367 10.1586C13.2328 10.2803 13.2835 10.4317 13.2801 10.5867L13.2934 12.6667Z"></path>
  </symbol>
  <symbol viewBox="0 0 24 24" id="icon-catalog">
    <path d="M11 21H7C4.79086 21 3 19.2091 3 17V13H11V21ZM21 13V17C21 19.2091 19.2091 21 17 21H13V13H21ZM4.90039 17C4.90039 18.1598 5.8402 19.0996 7 19.0996H9.09961V14.9004H4.90039V17ZM14.9004 19.0996H17C18.1598 19.0996 19.0996 18.1598 19.0996 17V14.9004H14.9004V19.0996ZM11 11H3V7C3 4.79086 4.79086 3 7 3H11V11ZM17 3C19.2091 3 21 4.79086 21 7C21 9.20914 19.2091 11 17 11C14.7909 11 13 9.20914 13 7C13 4.79086 14.7909 3 17 3ZM7 4.90039C5.8402 4.90039 4.90039 5.8402 4.90039 7V9.09961H9.09961V4.90039H7ZM17 4.90039C15.8402 4.90039 14.9004 5.8402 14.9004 7C14.9004 8.1598 15.8402 9.09961 17 9.09961C18.1598 9.09961 19.0996 8.1598 19.0996 7C19.0996 5.8402 18.1598 4.90039 17 4.90039Z"></path>
  </symbol>
  <symbol viewBox="0 0 16 16" id="icon-email">
    <path d="M12.6668 2.6665H3.3335C2.80306 2.6665 2.29436 2.87722 1.91928 3.25229C1.54421 3.62736 1.3335 4.13607 1.3335 4.6665V11.3332C1.3335 11.8636 1.54421 12.3723 1.91928 12.7474C2.29436 13.1225 2.80306 13.3332 3.3335 13.3332H12.6668C13.1973 13.3332 13.706 13.1225 14.081 12.7474C14.4561 12.3723 14.6668 11.8636 14.6668 11.3332V4.6665C14.6668 4.13607 14.4561 3.62736 14.081 3.25229C13.706 2.87722 13.1973 2.6665 12.6668 2.6665ZM12.3935 3.99984L8.4735 7.91984C8.41152 7.98232 8.33779 8.03192 8.25655 8.06576C8.17531 8.09961 8.08817 8.11704 8.00016 8.11704C7.91216 8.11704 7.82502 8.09961 7.74378 8.06576C7.66254 8.03192 7.5888 7.98232 7.52683 7.91984L3.60683 3.99984H12.3935ZM13.3335 11.3332C13.3335 11.51 13.2633 11.6796 13.1382 11.8046C13.0132 11.9296 12.8436 11.9998 12.6668 11.9998H3.3335C3.15669 11.9998 2.98712 11.9296 2.86209 11.8046C2.73707 11.6796 2.66683 11.51 2.66683 11.3332V4.93984L6.58683 8.85984C6.96183 9.23437 7.47016 9.44474 8.00016 9.44474C8.53016 9.44474 9.0385 9.23437 9.4135 8.85984L13.3335 4.93984V11.3332Z"></path>
  </symbol>
  <symbol viewBox="0 0 24 24" id="icon-facebook">
    <path d="M13.255 8.66001H14.195V7.07001C13.7399 7.02269 13.2826 6.99932 12.825 7.00001C11.465 7.00001 10.535 7.83001 10.535 9.35001V10.66H9V12.44H10.535V17H12.375V12.44H13.905L14.135 10.66H12.375V9.52501C12.375 9.00001 12.515 8.66001 13.255 8.66001Z"></path>
    <path d="M21.94 7.88C21.9206 7.0503 21.7652 6.2294 21.48 5.45C21.2257 4.78313 20.83 4.17928 20.32 3.68C19.8248 3.16743 19.2196 2.77418 18.55 2.53C17.7727 2.23616 16.9508 2.07721 16.12 2.06C15.06 2 14.72 2 12 2C9.28 2 8.94 2 7.88 2.06C7.04915 2.07721 6.22734 2.23616 5.45 2.53C4.78168 2.77665 4.17693 3.16956 3.68 3.68C3.16743 4.17518 2.77418 4.78044 2.53 5.45C2.23616 6.22734 2.07721 7.04915 2.06 7.88C2 8.94 2 9.28 2 12C2 14.72 2 15.06 2.06 16.12C2.07721 16.9508 2.23616 17.7727 2.53 18.55C2.77418 19.2196 3.16743 19.8248 3.68 20.32C4.17693 20.8304 4.78168 21.2234 5.45 21.47C6.22734 21.7638 7.04915 21.9228 7.88 21.94C8.94 22 9.28 22 12 22C14.72 22 15.06 22 16.12 21.94C16.9508 21.9228 17.7727 21.7638 18.55 21.47C19.2196 21.2258 19.8248 20.8326 20.32 20.32C20.8322 19.8226 21.2283 19.2182 21.48 18.55C21.7652 17.7706 21.9206 16.9497 21.94 16.12C21.94 15.06 22 14.72 22 12C22 9.28 22 8.94 21.94 7.88ZM20.14 16C20.1327 16.6348 20.0178 17.2637 19.8 17.86C19.6403 18.2952 19.3839 18.6884 19.05 19.01C18.7256 19.3405 18.3332 19.5964 17.9 19.76C17.3037 19.9778 16.6748 20.0927 16.04 20.1C15.04 20.15 14.67 20.16 12.04 20.16C9.41 20.16 9.04 20.16 8.04 20.1C7.38089 20.1123 6.72459 20.0109 6.1 19.8C5.68578 19.6281 5.31136 19.3728 5 19.05C4.66809 18.7287 4.41484 18.3352 4.26 17.9C4.01586 17.2952 3.88044 16.6519 3.86 16C3.86 15 3.8 14.63 3.8 12C3.8 9.37 3.8 9 3.86 8C3.86448 7.35106 3.98295 6.70795 4.21 6.1C4.38605 5.67791 4.65627 5.30166 5 5C5.30381 4.65617 5.67929 4.3831 6.1 4.2C6.70955 3.98004 7.352 3.86508 8 3.86C9 3.86 9.37 3.8 12 3.8C14.63 3.8 15 3.8 16 3.86C16.6348 3.86728 17.2637 3.98225 17.86 4.2C18.3144 4.36865 18.7223 4.64285 19.05 5C19.3777 5.30718 19.6338 5.68273 19.8 6.1C20.0223 6.70893 20.1373 7.35178 20.14 8C20.19 9 20.2 9.37 20.2 12C20.2 14.63 20.19 15 20.14 16Z"></path>
  </symbol>
  <symbol viewBox="0 0 21 19" id="icon-heart">
    <path d="M15.2998 0C13.5598 0 11.8898 0.81 10.7998 2.09C9.7098 0.81 8.0398 0 6.2998 0C3.2198 0 0.799805 2.42 0.799805 5.5C0.799805 9.28 4.1998 12.36 9.3498 17.04L10.7998 18.35L12.2498 17.03C17.3998 12.36 20.7998 9.28 20.7998 5.5C20.7998 2.42 18.3798 0 15.2998 0ZM10.8998 15.55L10.7998 15.65L10.6998 15.55C5.9398 11.24 2.7998 8.39 2.7998 5.5C2.7998 3.5 4.2998 2 6.2998 2C7.51539 2 8.70606 2.61683 9.41442 3.55049C9.75386 3.99789 10.24 4.36 10.8016 4.36C11.3664 4.36 11.8545 3.99368 12.1954 3.54347C12.8995 2.61374 14.0873 2 15.2998 2C17.2998 2 18.7998 3.5 18.7998 5.5C18.7998 8.39 15.6598 11.24 10.8998 15.55Z"></path>
  </symbol>
  <symbol viewBox="0 0 25 24" id="icon-home">
    <path d="M21.3999 10V18C21.3999 20.2091 19.609 22 17.3999 22H7.3999C5.19076 22 3.3999 20.2091 3.3999 18V10L12.3999 2.5L21.3999 10ZM5.30029 10.8896V18C5.30029 19.1598 6.2401 20.0996 7.3999 20.0996H8.3999V17C8.3999 14.7909 10.1908 13 12.3999 13C14.609 13 16.3999 14.7909 16.3999 17V20.0996H17.3999C18.5597 20.0996 19.4995 19.1598 19.4995 18V10.8896L12.3999 4.97363L5.30029 10.8896ZM12.3999 15C11.2953 15 10.3999 15.8954 10.3999 17V20H14.3999V17C14.3999 15.8954 13.5045 15 12.3999 15Z"></path>
  </symbol>
  <symbol viewBox="0 0 25 24" id="icon-info">
    <path d="M11.7929 11.2929C11.9804 11.1054 12.2348 11 12.5 11C12.7652 11 13.0196 11.1054 13.2071 11.2929C13.3946 11.4804 13.5 11.7348 13.5 12V15C13.5 15.2652 13.3946 15.5196 13.2071 15.7071C13.0196 15.8946 12.7652 16 12.5 16C12.2348 16 11.9804 15.8946 11.7929 15.7071C11.6054 15.5196 11.5 15.2652 11.5 15V12C11.5 11.7348 11.6054 11.4804 11.7929 11.2929Z"></path>
    <path d="M11.9444 8.16853C12.1089 8.05865 12.3022 8 12.5 8C12.7652 8 13.0196 8.10536 13.2071 8.29289C13.3946 8.48043 13.5 8.73478 13.5 9C13.5 9.19778 13.4414 9.39112 13.3315 9.55557C13.2216 9.72002 13.0654 9.84819 12.8827 9.92388C12.7 9.99957 12.4989 10.0194 12.3049 9.98079C12.1109 9.9422 11.9327 9.84696 11.7929 9.70711C11.653 9.56725 11.5578 9.38907 11.5192 9.19509C11.4806 9.00111 11.5004 8.80004 11.5761 8.61732C11.6518 8.43459 11.78 8.27841 11.9444 8.16853Z"></path>
    <path fill-rule="evenodd" clip-rule="evenodd" d="M12.5 20C16.9183 20 20.5 16.4183 20.5 12C20.5 7.58172 16.9183 4 12.5 4C8.08172 4 4.5 7.58172 4.5 12C4.5 16.4183 8.08172 20 12.5 20ZM12.5 22C18.0228 22 22.5 17.5228 22.5 12C22.5 6.47715 18.0228 2 12.5 2C6.97715 2 2.5 6.47715 2.5 12C2.5 17.5228 6.97715 22 12.5 22Z"></path>
  </symbol>
  <symbol viewBox="0 0 24 24" id="icon-instagram">
    <path d="M17.34 5.46C17.1027 5.46 16.8707 5.53038 16.6733 5.66224C16.476 5.79409 16.3222 5.98151 16.2313 6.20078C16.1405 6.42005 16.1168 6.66133 16.1631 6.89411C16.2094 7.12689 16.3236 7.34071 16.4915 7.50853C16.6593 7.67635 16.8731 7.79064 17.1059 7.83694C17.3387 7.88324 17.5799 7.85948 17.7992 7.76866C18.0185 7.67783 18.2059 7.52402 18.3378 7.32668C18.4696 7.12935 18.54 6.89734 18.54 6.66C18.54 6.34174 18.4136 6.03652 18.1885 5.81147C17.9635 5.58643 17.6583 5.46 17.34 5.46ZM21.94 7.88C21.9206 7.0503 21.7652 6.2294 21.48 5.45C21.2257 4.78313 20.83 4.17928 20.32 3.68C19.8248 3.16743 19.2196 2.77418 18.55 2.53C17.7727 2.23616 16.9508 2.07721 16.12 2.06C15.06 2 14.72 2 12 2C9.28 2 8.94 2 7.88 2.06C7.04915 2.07721 6.22734 2.23616 5.45 2.53C4.78168 2.77665 4.17693 3.16956 3.68 3.68C3.16743 4.17518 2.77418 4.78044 2.53 5.45C2.23616 6.22734 2.07721 7.04915 2.06 7.88C2 8.94 2 9.28 2 12C2 14.72 2 15.06 2.06 16.12C2.07721 16.9508 2.23616 17.7727 2.53 18.55C2.77418 19.2196 3.16743 19.8248 3.68 20.32C4.17693 20.8304 4.78168 21.2234 5.45 21.47C6.22734 21.7638 7.04915 21.9228 7.88 21.94C8.94 22 9.28 22 12 22C14.72 22 15.06 22 16.12 21.94C16.9508 21.9228 17.7727 21.7638 18.55 21.47C19.2196 21.2258 19.8248 20.8326 20.32 20.32C20.8322 19.8226 21.2283 19.2182 21.48 18.55C21.7652 17.7706 21.9206 16.9497 21.94 16.12C21.94 15.06 22 14.72 22 12C22 9.28 22 8.94 21.94 7.88ZM20.14 16C20.1327 16.6348 20.0178 17.2637 19.8 17.86C19.6403 18.2952 19.3839 18.6884 19.05 19.01C18.7256 19.3405 18.3332 19.5964 17.9 19.76C17.3037 19.9778 16.6748 20.0927 16.04 20.1C15.04 20.15 14.67 20.16 12.04 20.16C9.41 20.16 9.04 20.16 8.04 20.1C7.38089 20.1123 6.72459 20.0109 6.1 19.8C5.68578 19.6281 5.31136 19.3728 5 19.05C4.66809 18.7287 4.41484 18.3352 4.26 17.9C4.01586 17.2952 3.88044 16.6519 3.86 16C3.86 15 3.8 14.63 3.8 12C3.8 9.37 3.8 9 3.86 8C3.86448 7.35106 3.98295 6.70795 4.21 6.1C4.38605 5.67791 4.65627 5.30166 5 5C5.30381 4.65617 5.67929 4.3831 6.1 4.2C6.70955 3.98004 7.352 3.86508 8 3.86C9 3.86 9.37 3.8 12 3.8C14.63 3.8 15 3.8 16 3.86C16.6348 3.86728 17.2637 3.98225 17.86 4.2C18.3144 4.36865 18.7223 4.64285 19.05 5C19.3777 5.30718 19.6338 5.68273 19.8 6.1C20.0223 6.70893 20.1373 7.35178 20.14 8C20.19 9 20.2 9.37 20.2 12C20.2 14.63 20.19 15 20.14 16ZM12 6.87C10.9858 6.87198 9.99496 7.17453 9.15265 7.73942C8.31035 8.30431 7.65438 9.1062 7.26763 10.0438C6.88089 10.9813 6.78072 12.0125 6.97979 13.0069C7.17886 14.0014 7.66824 14.9145 8.38608 15.631C9.10392 16.3474 10.018 16.835 11.0129 17.0321C12.0077 17.2293 13.0387 17.1271 13.9755 16.7385C14.9123 16.35 15.7129 15.6924 16.2761 14.849C16.8394 14.0056 17.14 13.0142 17.14 12C17.1413 11.3251 17.0092 10.6566 16.7512 10.033C16.4933 9.40931 16.1146 8.84281 15.6369 8.36605C15.1592 7.88929 14.5919 7.51168 13.9678 7.25493C13.3436 6.99818 12.6749 6.86736 12 6.87ZM12 15.33C11.3414 15.33 10.6976 15.1347 10.15 14.7688C9.60234 14.4029 9.17552 13.8828 8.92348 13.2743C8.67144 12.6659 8.6055 11.9963 8.73398 11.3503C8.86247 10.7044 9.17963 10.111 9.64533 9.64533C10.111 9.17963 10.7044 8.86247 11.3503 8.73398C11.9963 8.6055 12.6659 8.67144 13.2743 8.92348C13.8828 9.17552 14.4029 9.60234 14.7688 10.15C15.1347 10.6976 15.33 11.3414 15.33 12C15.33 12.4373 15.2439 12.8703 15.0765 13.2743C14.9092 13.6784 14.6639 14.0454 14.3547 14.3547C14.0454 14.6639 13.6784 14.9092 13.2743 15.0765C12.8703 15.2439 12.4373 15.33 12 15.33Z" stroke="black" stroke-width="0.1"></path>
  </symbol>
  <symbol viewBox="0 0 24 24" id="icon-menu">
    <path d="M12 7C12.3956 7 12.7822 6.8827 13.1111 6.66294C13.44 6.44318 13.6964 6.13082 13.8478 5.76537C13.9991 5.39992 14.0387 4.99778 13.9616 4.60982C13.8844 4.22186 13.6939 3.86549 13.4142 3.58579C13.1345 3.30608 12.7781 3.1156 12.3902 3.03843C12.0022 2.96126 11.6001 3.00087 11.2346 3.15224C10.8692 3.30362 10.5568 3.55996 10.3371 3.88886C10.1173 4.21776 10 4.60444 10 5C10 5.53043 10.2107 6.03914 10.5858 6.41421C10.9609 6.78929 11.4696 7 12 7ZM12 17C11.6044 17 11.2178 17.1173 10.8889 17.3371C10.56 17.5568 10.3036 17.8692 10.1522 18.2346C10.0009 18.6001 9.96126 19.0022 10.0384 19.3902C10.1156 19.7781 10.3061 20.1345 10.5858 20.4142C10.8655 20.6939 11.2219 20.8844 11.6098 20.9616C11.9978 21.0387 12.3999 20.9991 12.7654 20.8478C13.1308 20.6964 13.4432 20.44 13.6629 20.1111C13.8827 19.7822 14 19.3956 14 19C14 18.4696 13.7893 17.9609 13.4142 17.5858C13.0391 17.2107 12.5304 17 12 17ZM12 10C11.6044 10 11.2178 10.1173 10.8889 10.3371C10.56 10.5568 10.3036 10.8692 10.1522 11.2346C10.0009 11.6001 9.96126 12.0022 10.0384 12.3902C10.1156 12.7781 10.3061 13.1345 10.5858 13.4142C10.8655 13.6939 11.2219 13.8844 11.6098 13.9616C11.9978 14.0387 12.3999 13.9991 12.7654 13.8478C13.1308 13.6964 13.4432 13.44 13.6629 13.1111C13.8827 12.7822 14 12.3956 14 12C14 11.4696 13.7893 10.9609 13.4142 10.5858C13.0391 10.2107 12.5304 10 12 10Z"></path>
  </symbol>
  <symbol viewBox="0 0 24 24" id="icon-pinterest">
    <path d="M21.94 7.88C21.9206 7.0503 21.7652 6.2294 21.48 5.45C21.2257 4.78313 20.83 4.17928 20.32 3.68C19.8248 3.16743 19.2196 2.77418 18.55 2.53C17.7727 2.23616 16.9508 2.07721 16.12 2.06C15.06 2 14.72 2 12 2C9.28 2 8.94 2 7.88 2.06C7.04915 2.07721 6.22734 2.23616 5.45 2.53C4.78168 2.77665 4.17693 3.16956 3.68 3.68C3.16743 4.17518 2.77418 4.78044 2.53 5.45C2.23616 6.22734 2.07721 7.04915 2.06 7.88C2 8.94 2 9.28 2 12C2 14.72 2 15.06 2.06 16.12C2.07721 16.9508 2.23616 17.7727 2.53 18.55C2.77418 19.2196 3.16743 19.8248 3.68 20.32C4.17693 20.8304 4.78168 21.2234 5.45 21.47C6.22734 21.7638 7.04915 21.9228 7.88 21.94C8.94 22 9.28 22 12 22C14.72 22 15.06 22 16.12 21.94C16.9508 21.9228 17.7727 21.7638 18.55 21.47C19.2196 21.2258 19.8248 20.8326 20.32 20.32C20.8322 19.8226 21.2283 19.2182 21.48 18.55C21.7652 17.7706 21.9206 16.9497 21.94 16.12C21.94 15.06 22 14.72 22 12C22 9.28 22 8.94 21.94 7.88ZM20.14 16C20.1327 16.6348 20.0178 17.2637 19.8 17.86C19.6403 18.2952 19.3839 18.6884 19.05 19.01C18.7256 19.3405 18.3332 19.5964 17.9 19.76C17.3037 19.9778 16.6748 20.0927 16.04 20.1C15.04 20.15 14.67 20.16 12.04 20.16C9.41 20.16 9.04 20.16 8.04 20.1C7.38089 20.1123 6.72459 20.0109 6.1 19.8C5.68578 19.6281 5.31136 19.3728 5 19.05C4.66809 18.7287 4.41484 18.3352 4.26 17.9C4.01586 17.2952 3.88044 16.6519 3.86 16C3.86 15 3.8 14.63 3.8 12C3.8 9.37 3.8 9 3.86 8C3.86448 7.35106 3.98295 6.70795 4.21 6.1C4.38605 5.67791 4.65627 5.30166 5 5C5.30381 4.65617 5.67929 4.3831 6.1 4.2C6.70955 3.98004 7.352 3.86508 8 3.86C9 3.86 9.37 3.8 12 3.8C14.63 3.8 15 3.8 16 3.86C16.6348 3.86728 17.2637 3.98225 17.86 4.2C18.3144 4.36865 18.7223 4.64285 19.05 5C19.3777 5.30718 19.6338 5.68273 19.8 6.1C20.0223 6.70893 20.1373 7.35178 20.14 8C20.19 9 20.2 9.37 20.2 12C20.2 14.63 20.19 15 20.14 16Z" stroke="black" stroke-width="0.1"></path>
    <path d="M11.1054 13.6146C10.8504 14.9906 10.5404 16.3106 9.6164 17.0006C9.3324 14.9206 10.0354 13.3566 10.3614 11.6976C9.8054 10.7336 10.4284 8.79158 11.6014 9.27058C13.0464 9.85858 10.3514 12.8566 12.1614 13.2306C14.0494 13.6226 14.8214 9.85658 13.6494 8.63058C11.9574 6.86258 8.7224 8.59058 9.1204 11.1226C9.2174 11.7426 9.8384 11.9296 9.3684 12.7836C8.2854 12.5366 7.9624 11.6566 8.0034 10.4836C8.0704 8.56358 9.6784 7.22058 11.2924 7.03358C13.3324 6.79858 15.2464 7.80558 15.5114 9.78158C15.8084 12.0116 14.5904 14.4276 12.4084 14.2536C11.8184 14.2066 11.5684 13.9036 11.1054 13.6136V13.6146Z"></path>
  </symbol>
  <symbol viewBox="0 0 11 10" id="icon-play">
    <path d="M4.25 7.25L7.25 5L4.25 2.75V7.25ZM5.25 0C2.49 0 0.25 2.24 0.25 5C0.25 7.76 2.49 10 5.25 10C8.01 10 10.25 7.76 10.25 5C10.25 2.24 8.01 0 5.25 0ZM5.25 9C3.045 9 1.25 7.205 1.25 5C1.25 2.795 3.045 1 5.25 1C7.455 1 9.25 2.795 9.25 5C9.25 7.205 7.455 9 5.25 9Z"></path>
  </symbol>
  <symbol viewBox="0 0 25 24" id="icon-profile">
    <path d="M16.3133 12.7093C17.2985 11.9384 18.0177 10.8813 18.3707 9.68501C18.7236 8.48872 18.6929 7.21276 18.2828 6.03464C17.8726 4.85652 17.1034 3.83483 16.0822 3.11171C15.061 2.38859 13.8386 2 12.585 2C11.3314 2 10.1089 2.38859 9.08774 3.11171C8.06653 3.83483 7.29735 4.85652 6.88721 6.03464C6.47706 7.21276 6.44634 8.48872 6.79932 9.68501C7.15231 10.8813 7.87144 11.9384 8.85667 12.7093C7.16845 13.382 5.69542 14.4976 4.59462 15.9374C3.49382 17.3771 2.80651 19.0869 2.60596 20.8846V22H4.59991L4.61583 21.1045C4.8365 19.1508 5.77321 17.3465 7.24698 16.0362C8.72075 14.7259 10.6283 14.0016 12.6051 14.0016C14.5819 14.0016 16.4894 14.7259 17.9632 16.0362C19.437 17.3465 20.3737 19.1508 20.5943 21.1045L20.5999 22C20.5999 22 21.3508 21.9955 21.5993 21.994H21.7098H22.5942V20.8946C22.3927 19.0918 21.7017 17.3776 20.5952 15.9357C19.4887 14.4937 18.0086 13.3784 16.3133 12.7093ZM12.585 11.9997C11.79 11.9997 11.0128 11.7653 10.3517 11.326C9.69069 10.8867 9.17547 10.2624 8.87122 9.53189C8.56698 8.8014 8.48737 7.9976 8.64248 7.22212C8.79758 6.44665 9.18042 5.73433 9.7426 5.17524C10.3048 4.61615 11.021 4.23541 11.8008 4.08115C12.5805 3.9269 13.3888 4.00607 14.1233 4.30865C14.8578 4.61122 15.4856 5.12362 15.9273 5.78103C16.369 6.43845 16.6047 7.21137 16.6047 8.00204C16.6047 9.06229 16.1812 10.0791 15.4274 10.8288C14.6735 11.5785 13.6511 11.9997 12.585 11.9997Z"></path>
  </symbol>
  <symbol viewBox="0 0 24 24" id="icon-search">
    <path d="M9 2C5.14585 2 2 5.14585 2 9C2 12.8541 5.14585 16 9 16C10.748 16 12.345 15.348 13.5742 14.2812L12.5 15L18.5 21L20.4195 19.2278L14.5634 13.2278L14.3374 13.5088L14.2812 13.5742C15.348 12.345 16 10.748 16 9C16 5.14585 12.8541 2 9 2ZM9 4C11.7733 4 14 6.22673 14 9C14 11.7733 11.7733 14 9 14C6.22673 14 4 11.7733 4 9C4 6.22673 6.22673 4 9 4Z"></path>
  </symbol>
  <symbol viewBox="0 0 24 24" id="icon-symbol">
    <path fill-rule="evenodd" clip-rule="evenodd" d="M22.6857 11.875V12C22.6608 12.0114 22.636 12.0227 22.6112 12.0342C21.846 12.3866 21.1136 12.7725 20.4136 13.1921C17.3614 15.0218 14.9247 17.4944 13.065 20.6491C12.6255 21.3945 12.2183 22.1779 11.8428 23C11.4284 22.1991 10.9886 21.4303 10.5231 20.6946C8.56326 17.5974 6.14623 15.0867 3.23424 13.2393C2.54113 12.7996 1.81998 12.3975 1.07027 12.0339C1.04688 12.0226 1.02345 12.0113 1 12V11.875C1.0255 11.8637 1.05096 11.8524 1.07638 11.8411C1.83765 11.5008 2.56782 11.1195 3.2669 10.6988C6.25915 8.89806 8.68176 6.37453 10.5348 3.24609C10.9453 2.553 11.3278 1.83023 11.6824 1.07905C11.6949 1.05273 11.7073 1.02638 11.7196 1H11.8428C11.8552 1.02506 11.8676 1.05009 11.88 1.07508C12.251 1.8224 12.6469 2.53884 13.0682 3.22439C14.9839 6.34187 17.4236 8.82063 20.4262 10.6607C21.1246 11.0886 21.8533 11.482 22.613 11.8408C22.6372 11.8523 22.6614 11.8637 22.6857 11.875ZM18.3162 11.9163C15.6925 13.6661 13.5124 15.8851 11.7615 18.5767C9.97208 15.969 7.83709 13.7516 5.32982 11.9934C7.91978 10.2543 10.0815 8.00756 11.8185 5.34635C13.5913 7.97561 15.7508 10.1722 18.3162 11.9163Z"></path>
  </symbol>
  <symbol viewBox="0 0 24 24" id="icon-tik-tok">
    <path fill-rule="evenodd" clip-rule="evenodd" d="M14.2415 7C14.4064 8.41908 15.1986 9.26504 16.5756 9.35506V10.9511C15.7776 11.0291 15.0785 10.7681 14.2655 10.2761V13.2612C14.2655 17.0533 10.1313 18.2384 8.46927 15.5202C7.40118 13.7714 8.05523 10.7022 11.4813 10.5791V12.2623C11.2203 12.3042 10.9413 12.3703 10.6862 12.4573C9.9241 12.7153 9.49219 13.1983 9.61211 14.0504C9.84318 15.6825 12.8372 16.1655 12.5882 12.9763V7.00309H14.2413V7H14.2415Z"></path>
    <rect x="3" y="3" width="18" height="18" rx="9" stroke="black" stroke-width="2"></rect>
  </symbol>
  <symbol viewBox="0 0 24 24" id="icon-view">
    <path d="M12 4C16.1921 4 19.7723 6.99308 21.7129 11.1543L22.1074 12L21.7129 12.8457C19.7723 17.0069 16.1921 20 12 20C7.80804 19.9999 4.2286 17.0067 2.28809 12.8457L1.89355 12L2.28809 11.1543C4.2286 6.99325 7.80804 4.00015 12 4ZM12 6C8.83014 6.00015 5.83054 8.29018 4.10059 12C5.83054 15.7098 8.83014 17.9999 12 18C15.17 18 18.1704 15.71 19.9004 12C18.1704 8.29 15.17 6 12 6ZM12 8C13.0609 8 14.079 8.42173 14.8291 9.17188C15.579 9.92199 16 10.9393 16 12C16 12.7911 15.7657 13.5649 15.3262 14.2227C14.8867 14.8802 14.2619 15.3926 13.5312 15.6953C12.8003 15.9981 11.9957 16.0772 11.2197 15.9229C10.4439 15.7685 9.73122 15.3875 9.17188 14.8281C8.61255 14.2687 8.23148 13.5561 8.07715 12.7803C7.92286 12.0045 8.0021 11.2005 8.30469 10.4697C8.60744 9.73882 9.12052 9.11335 9.77832 8.67383C10.436 8.23451 11.2091 8.00006 12 8ZM12.7656 10.1523C12.4003 10.001 11.9982 9.96099 11.6104 10.0381C11.2224 10.1153 10.8656 10.3062 10.5859 10.5859C10.3064 10.8655 10.1163 11.2217 10.0391 11.6094C9.96189 11.9973 10.001 12.4002 10.1523 12.7656C10.3037 13.131 10.5608 13.4434 10.8896 13.6631C11.2184 13.8826 11.6047 13.9999 12 14C12.5304 14 13.039 13.789 13.4141 13.4141C13.7891 13.039 14 12.5304 14 12C14 11.6044 13.8828 11.2176 13.6631 10.8887C13.4433 10.5599 13.131 10.3037 12.7656 10.1523Z"></path>
  </symbol>
  <symbol viewBox="0 0 24 24" id="icon-youtube">
    <path d="M15.4 11.16L10.5 8.00005C10.348 7.91228 10.1755 7.86608 10 7.86608C9.82446 7.86608 9.65202 7.91228 9.5 8.00005C9.35174 8.08557 9.22791 8.20771 9.14036 8.35479C9.05282 8.50187 9.00449 8.66895 9 8.84005V15.16C9.0013 15.3382 9.05019 15.5129 9.14161 15.6658C9.23303 15.8188 9.36367 15.9445 9.52 16.0301C9.66543 16.1157 9.83123 16.1606 10 16.16C10.1771 16.1479 10.3487 16.093 10.5 16L15.4 12.84C15.5403 12.7494 15.6557 12.625 15.7356 12.4783C15.8155 12.3315 15.8574 12.1671 15.8574 12C15.8574 11.833 15.8155 11.6686 15.7356 11.5218C15.6557 11.3751 15.5403 11.2507 15.4 11.16ZM11 13.32V10.68L13 12L11 13.32ZM19.38 4.51005L17.83 4.31005C13.991 3.84001 10.109 3.84001 6.27 4.31005L4.72 4.51005C3.97471 4.59116 3.2854 4.94392 2.78368 5.50098C2.28195 6.05803 2.00297 6.78036 2 7.53005V16.47C2.00636 17.2086 2.28051 17.9198 2.77155 18.4715C3.26259 19.0233 3.93715 19.3781 4.67 19.47L6.22 19.66C8.13776 19.8931 10.0681 20.0066 12 20C13.9323 20 15.8627 19.8798 17.78 19.64L19.33 19.4501C20.0628 19.3581 20.7374 19.0033 21.2285 18.4515C21.7195 17.8998 21.9936 17.1886 22 16.4501V7.53005C21.9985 6.78803 21.7265 6.072 21.235 5.51609C20.7435 4.96017 20.0662 4.6025 19.33 4.51005H19.38ZM20.05 16.51C20.0508 16.762 19.9565 17.0049 19.7859 17.1903C19.6154 17.3757 19.3811 17.4899 19.13 17.51L17.58 17.7001C13.9077 18.1601 10.1923 18.1601 6.52 17.7001L4.97 17.51C4.71889 17.4899 4.48463 17.3757 4.31406 17.1903C4.1435 17.0049 4.04919 16.762 4.05 16.51V7.53005C4.06192 7.282 4.16055 7.04601 4.32869 6.86325C4.49683 6.68049 4.7238 6.56256 4.97 6.53005L6.47 6.30005C10.1427 5.8467 13.8573 5.8467 17.53 6.30005L19.08 6.49005C19.3262 6.52256 19.5532 6.64049 19.7213 6.82325C19.8894 7.00601 19.9881 7.242 20 7.49005L20.05 16.51Z"></path>
  </symbol>
  <symbol viewBox="0 0 24 24" id="stars">
    <path d="M19 9L20.25 6.25L23 5L20.25 3.75L19 1L17.75 3.75L15 5L17.75 6.25L19 9Z"></path>
    <path d="M19 15L17.75 17.75L15 19L17.75 20.25L19 23L20.25 20.25L23 19L20.25 17.75L19 15Z"></path>
    <path d="M11.5 9.5L9 4L6.5 9.5L1 12L6.5 14.5L9 20L11.5 14.5L17 12L11.5 9.5ZM9.99 12.99L9 15.17L8.01 12.99L5.83 12L8.01 11.01L9 8.83L9.99 11.01L12.17 12L9.99 12.99Z"></path>
  </symbol>
  <symbol viewBox="0 0 24 24" id="clock">
    <path d="M12 2C6.5 2 2 6.5 2 12C2 17.5 6.5 22 12 22C17.5 22 22 17.5 22 12C22 6.5 17.5 2 12 2ZM13 12C13 12.6 12.6 13 12 13C11.8 13 11.7 13 11.5 12.9L8.9 11.4C8.4 11.1 8.3 10.5 8.5 10C8.8 9.5 9.4 9.4 9.9 9.6L11 10.2V7C11 6.4 11.4 6 12 6C12.6 6 13 6.4 13 7V12Z"/>
  </symbol>
</svg>